<?xml version="1.0" standalone="no"?>
<!DOCTYPE svg PUBLIC "-//W3C//DTD SVG 20010904//EN"
 "http://www.w3.org/TR/2001/REC-SVG-20010904/DTD/svg10.dtd">
<svg version="1.0" xmlns="http://www.w3.org/2000/svg"
 width="691.000000pt" height="691.000000pt" viewBox="0 0 691.000000 691.000000"
 preserveAspectRatio="xMidYMid meet">
<metadata>
Created by potrace 1.14, written by Peter Selinger 2001-2017
</metadata>
<g transform="translate(0.000000,691.000000) scale(0.100000,-0.100000)"
fill="#000000" stroke="none">
<path d="M2150 6820 l-54 -5 0 -567 0 -568 -46 -1 c-25 0 -233 0 -462 0 l-418
-1 0 -294 0 -294 28 -1 c15 0 223 -1 462 -2 l435 -2 3 -2460 c1 -1353 4 -2464
6 -2470 4 -13 983 -12 995 1 5 5 14 36 20 69 15 73 13 66 54 242 l32 143 54
-70 c136 -179 293 -300 497 -380 155 -62 288 -84 504 -84 308 0 546 66 764
212 81 54 214 182 272 262 129 175 244 462 278 695 4 23 9 52 11 65 34 171 41
708 11 880 -3 14 -7 43 -10 65 -41 282 -147 560 -290 755 -58 80 -191 208
-271 261 -162 108 -365 176 -608 204 -104 12 -339 7 -417 -8 -104 -22 -150
-35 -236 -68 -146 -57 -271 -135 -375 -235 -26 -24 -51 -44 -55 -44 -5 0 -8
260 -6 577 1 318 3 759 4 981 2 352 4 403 18 406 8 3 542 4 1185 4 644 1 1176
1 1183 1 9 1 12 67 12 295 l0 294 -1162 0 c-640 1 -1179 1 -1199 1 l-35 1 0
570 1 570 -55 0 c-415 4 -1087 4 -1130 0z m1860 -4261 c160 -32 279 -140 335
-304 36 -104 43 -176 44 -465 2 -387 -18 -499 -113 -628 -85 -115 -208 -173
-377 -177 -239 -7 -401 81 -493 267 -73 149 -92 264 -90 538 2 194 6 247 28
343 78 334 327 494 666 426z"/>
</g>
</svg>
